<svg xmlns="http://www.w3.org/2000/svg" width="430" height="430" style="width:100%;height:100%;transform:translate3d(0,0,0);content-visibility:visible" viewBox="0 0 430 430"><defs><clipPath id="a"><path d="M0 0h430v430H0z"/></clipPath><clipPath id="g"><path d="M0 0h430v430H0z"/></clipPath><clipPath id="f"><path d="M0 0h430v430H0z"/></clipPath><clipPath id="e"><path d="M0 0h430v430H0z"/></clipPath><clipPath id="d"><path d="M0 0h430v430H0z"/></clipPath><clipPath id="c"><path d="M0 0h430v430H0z"/></clipPath><clipPath id="b"><path d="M0 0h430v430H0z"/></clipPath></defs><g fill="none" clip-path="url(#a)"><g clip-path="url(#b)" style="display:none"><g style="display:none"><path class="secondary"/><path class="secondary"/></g><path class="primary" style="display:none"/></g><g clip-path="url(#c)" style="display:none"><g style="display:none"><path class="secondary"/><path class="secondary"/></g><path class="primary" style="display:none"/></g><g clip-path="url(#d)" style="display:none"><g style="display:none"><path class="secondary"/><path class="secondary"/></g><path class="primary" style="display:none"/></g><g clip-path="url(#e)" style="display:none"><g style="display:none"><path class="secondary"/><path class="secondary"/></g><path class="primary" style="display:none"/></g><g stroke-linecap="round" stroke-linejoin="round" stroke-width="6" clip-path="url(#f)" style="display:block"><path stroke="#2F80E8" d="M-70 70 70-70m-95 20c0 13.807-11.193 25-25 25s-25-11.193-25-25 11.193-25 25-25 25 11.193 25 25M75 50c0 13.807-11.193 25-25 25S25 63.807 25 50s11.193-25 25-25 25 11.193 25 25" class="secondary" style="display:block" transform="translate(217.999 217)"/><path stroke="#FFF" d="M-54.5-131.553c-49.14-23.349-100.402 27.913-77.053 77.053-51.263 18.255-51.263 90.745 0 109-23.349 49.14 27.913 100.402 77.053 77.053 18.255 51.263 90.745 51.263 109 0 49.14 23.349 100.402-27.913 77.053-77.053 51.263-18.255 51.263-90.745 0-109 23.349-49.14-27.913-100.402-77.053-77.053-18.255-51.263-90.745-51.263-109 0" class="primary" style="display:block" transform="translate(215 215)"/></g><g clip-path="url(#g)" style="display:none"><g style="display:none"><path class="secondary"/><path class="secondary"/></g><path class="primary" style="display:none"/></g></g></svg>